<svg width="320" height="400" viewBox="0 0 320 400" fill="none" xmlns="http://www.w3.org/2000/svg">
<rect opacity="0.05" width="320" height="400" rx="16" fill="#276ED8"/>
<g class="lamp" opacity="0.2" clip-path="url(#clip0_52_1)">
<path class="ray" d="M103.949 54.1585C102.826 54.8066 101.389 54.4215 100.741 53.299L97.6774 47.9928C97.0293 46.8702 97.4144 45.4332 98.5369 44.7851C99.6594 44.137 101.096 44.5221 101.745 45.6446L104.808 50.9508C105.456 52.0734 105.071 53.5104 103.949 54.1585Z" fill="#84B5FF"/>
<path class="ray" d="M126.027 51.2522C125.506 51.5528 124.871 51.6554 124.245 51.4854C122.992 51.1496 122.249 49.8617 122.584 48.6086L124.171 42.6895C124.506 41.4363 125.794 40.6928 127.047 41.0285C128.3 41.3643 129.044 42.6522 128.708 43.9053L127.122 49.8245C126.952 50.4505 126.547 50.9517 126.027 51.2522V51.2522Z" fill="#84B5FF"/>
<path class="ray" d="M148.999 61.7446L143.693 64.8082C142.57 65.4563 141.133 65.0712 140.485 63.9487C139.837 62.8262 140.222 61.3892 141.345 60.7411L146.651 57.6775C147.774 57.0294 149.211 57.4145 149.859 58.537C150.507 59.6595 150.122 61.0966 148.999 61.7446Z" fill="#84B5FF"/>
<path class="ray" d="M152.519 88.4717C151.998 88.7722 151.364 88.8749 150.738 88.7048L144.818 87.1188C143.565 86.783 142.822 85.4951 143.157 84.242C143.493 82.9889 144.781 82.2453 146.034 82.5811L151.953 84.1671C153.207 84.5029 153.95 85.7908 153.614 87.0439C153.446 87.6726 153.04 88.1711 152.519 88.4717Z" fill="#84B5FF"/>
<path class="ray" d="M109.38 113.378C108.859 113.679 108.224 113.781 107.598 113.611C106.345 113.275 105.602 111.987 105.938 110.734L107.524 104.815C107.859 103.562 109.147 102.819 110.4 103.154C111.653 103.49 112.397 104.778 112.061 106.031L110.475 111.95C110.307 112.579 109.9 113.077 109.38 113.378V113.378Z" fill="#84B5FF"/>
<path class="ray" d="M93.299 93.9031L87.9928 96.9667C86.8703 97.6148 85.4333 97.2297 84.7852 96.1072C84.1371 94.9847 84.5221 93.5477 85.6447 92.8996L90.9509 89.836C92.0734 89.1879 93.5104 89.573 94.1585 90.6955C94.8066 91.818 94.4216 93.255 93.299 93.9031Z" fill="#84B5FF"/>
<path class="ray" d="M90.393 71.8255C89.8724 72.1261 89.2375 72.2287 88.6115 72.0587L82.6924 70.4726C81.4393 70.1369 80.6957 68.849 81.0314 67.5958C81.3672 66.3427 82.6551 65.5991 83.9083 65.9349L89.8274 67.5209C91.0805 67.8567 91.8241 69.1446 91.4883 70.3977C91.3156 71.0253 90.9135 71.5249 90.393 71.8255V71.8255Z" fill="#84B5FF"/>
<path d="M139.545 97.0284L141.502 100.418C143.005 103.021 142.099 106.399 139.496 107.902L132.718 111.816C130.44 113.131 126.971 112.82 124.78 109.024L123.277 106.421L139.545 97.0284Z" fill="#84B5FF"/>
<path d="M120.764 55.6684C114.235 54.6295 107.564 56.6009 102.548 61.1241C96.2234 66.7638 93.7752 75.9861 96.4323 84.0323C99.1719 92.284 106.164 98.008 114.658 99.0692C116.947 99.3386 119.123 100.541 120.739 102.463L120.755 102.491C120.793 102.432 120.875 102.385 120.929 102.354L137.197 92.9613C137.251 92.9299 137.279 92.9143 137.348 92.9101L137.333 92.883C136.523 90.6031 136.647 88.0007 137.673 85.4564C140.157 79.1775 139.683 72.2206 136.302 66.364C132.983 60.6158 127.335 56.7187 120.764 55.6684ZM128.273 72.8073C127.161 73.4491 125.707 73.0595 125.065 71.9478C122.686 67.8265 117.425 66.4169 113.304 68.7964C112.192 69.4382 110.738 69.0486 110.096 67.9369C109.454 66.8252 109.844 65.3711 110.956 64.7293C117.3 61.0662 125.469 63.255 129.132 69.5997C129.774 70.7114 129.384 72.1655 128.273 72.8073Z" fill="#84B5FF"/>
<path d="M120.739 102.463L120.929 102.354C120.874 102.385 120.793 102.432 120.755 102.491L120.739 102.463Z" fill="#84B5FF"/>
<path d="M137.333 92.883L137.348 92.9101C137.278 92.9143 137.251 92.93 137.197 92.9613L137.333 92.883Z" fill="#84B5FF"/>
</g>
<path class="gear" opacity="0.2" d="M119.665 183.761L128 185.329V192.802L119.665 194.239C119.025 197.309 117.81 200.183 116.138 202.73L120.919 209.746L115.628 215.037L108.717 210.151C106.17 211.823 103.309 213.025 100.226 213.665L98.6579 222H91.1852L89.7482 213.665C86.6782 213.025 83.804 211.81 81.2565 210.138L74.2541 214.919L68.9632 209.628L73.8492 202.717C72.1769 200.17 70.975 197.296 70.3349 194.226L62 192.658V185.185L70.3349 183.748C70.975 180.665 72.19 177.804 73.8622 175.257L69.0808 168.254L74.3717 162.963L81.2957 167.849C83.8432 166.177 86.7173 164.962 89.7874 164.335L91.3551 156H98.8278L100.265 164.335C103.348 164.975 106.209 166.19 108.757 167.862L115.759 163.081L121.05 168.372L116.164 175.283C117.823 177.817 119.025 180.678 119.665 183.761ZM95 173.519C86.456 173.519 79.5321 180.456 79.5321 188.987C79.5321 197.518 86.456 204.455 95 204.455C103.544 204.455 110.468 197.531 110.468 188.987C110.468 180.443 103.544 173.519 95 173.519Z" fill="#84B5FF"/>
<mask id="mask0_52_1" style="mask-type:alpha" maskUnits="userSpaceOnUse" x="0" y="18" width="320" height="382">
<rect y="18" width="320" height="382" rx="16" fill="#3D27C7"/>
</mask>
<g mask="url(#mask0_52_1)">
<path opacity="0.1" d="M189.973 207.801L178.157 203.172L177.756 203.015L165.94 198.386C165.94 198.386 165.284 239.449 83.4471 375.058L102.069 383.041L109.551 386.343L128.408 394.845C160.459 239.729 189.973 207.801 189.973 207.801Z" fill="#84B5FF"/>
<path opacity="0.5" d="M183.103 198.745L178.385 197.825L178.758 196.873L175.189 194.007C175.189 194.007 104.107 395.293 75.2266 419.06L73.4316 425.958L85.1637 432.455L87.7343 432.523L99.5535 437.46L102.63 437.607C97.5808 400.548 183.103 198.745 183.103 198.745Z" fill="white"/>
<g class="rocket" filter="url(#filter0_d_52_1)">
<path class="flame" d="M201.975 194.997C197.508 206.946 169.372 224.418 169.372 224.418C169.372 224.418 160.143 191.314 164.61 179.365C169.077 167.415 178.669 167.633 188.987 171.95C199.304 176.266 206.442 183.047 201.975 194.997Z" fill="#06B25F"/>
<path class="flame" opacity="0.5" d="M197.349 190.105C194.255 198.364 173.698 213.293 173.698 213.293C173.698 213.293 168.374 187.564 171.469 179.303C174.564 171.044 181.208 171.194 188.354 174.177C195.5 177.16 200.444 181.846 197.349 190.105Z" fill="#66D6A0"/>
<path class="flame" d="M193.753 183.737C191.947 188.534 178.486 201.089 178.486 201.089C178.486 201.089 176.841 182.263 178.648 177.466C180.454 172.669 184.332 172.756 188.503 174.487C192.674 176.219 195.56 178.94 193.753 183.737Z" fill="#66D6A0"/>
<path d="M188.832 137.02C188.832 137.02 157.984 138.187 148.411 164.592C148.411 164.592 149.01 168.181 152.917 165.803C156.821 163.423 162.607 154.812 179.454 161.836L188.832 137.02Z" fill="#A6CAFF"/>
<path d="M213.504 148.982C213.504 148.982 235.515 172.189 225.941 198.594C225.941 198.594 223.238 200.806 221.856 196.223C220.476 191.64 221.634 181.099 204.787 174.075L213.504 148.982Z" fill="#84B5FF"/>
<path d="M241.763 127.073C245.827 116.145 247.473 104.979 247.575 94.6721L222.261 84.4332L218.866 93.5617C228.232 97.35 233.431 106.855 230.479 114.79C227.528 122.726 217.543 126.092 208.176 122.303L191 168.488L207.567 175.189C220.314 167.275 233.352 149.687 241.763 127.073Z" fill="#276ED8"/>
<path d="M198.3 102.071C201.251 94.1355 211.236 90.7721 220.6 94.5594L223.995 85.431L198.683 75.193C192.092 82.8753 186.09 92.2801 182.026 103.207C173.616 125.822 171.873 147.979 176.169 162.786L192.734 169.486L209.911 123.299C200.548 119.512 195.349 110.007 198.3 102.071Z" fill="#3E85EE"/>
<path d="M175.66 165.734C175.28 165.573 174.877 165.722 174.76 166.064L173.763 168.966C173.645 169.31 173.857 169.717 174.237 169.878L188.73 176.018L190.155 171.871L175.661 165.732L175.66 165.734Z" fill="#3E85EE"/>
<path d="M204.053 177.708L189.572 171.574L188.148 175.721L202.629 181.855C203.009 182.016 203.411 181.868 203.53 181.525L204.526 178.623C204.646 178.28 204.433 177.87 204.053 177.708Z" fill="#276ED8"/>
<path d="M225.061 112.935C227.023 107.373 223.593 100.687 217.4 98L211.193 119.501C217.383 122.187 223.1 118.495 225.061 112.935Z" fill="#84B5FF"/>
<path d="M203.556 104.084C201.592 109.654 205.025 116.349 211.225 119.041L218.336 98.8721C212.138 96.1819 205.519 98.5141 203.556 104.084Z" fill="#A6CAFF"/>
<path d="M225.052 112.076C223.027 117.644 216.626 118.054 211.22 118.526L209.536 123.158C216.275 124.596 227.785 124.584 230.761 114.247C233.715 106.122 228.753 97.4743 219.703 93.7114L216.715 97.4433C222.913 100.023 227.077 106.507 225.052 112.076Z" fill="#06B25F"/>
<path d="M198.309 101.856C195.326 110.062 200.268 119.47 210.249 123.635L211.949 118.958C205.736 116.374 201.431 109.631 203.475 104.007C205.519 98.3835 212.211 95.9199 218.423 98.5037L220.123 93.8266C211.06 90.0525 201.292 93.6486 198.309 101.856Z" fill="#66D6A0"/>
<path d="M237.082 50L225 83.2804L248.987 93.3462C249.32 70.6575 242.323 52.199 237.082 50Z" fill="#84B5FF"/>
<path d="M237.067 50.0649C231.829 47.8668 215.049 56.3475 201 73.2803L224.985 83.3452L237.067 50.0649Z" fill="#A6CAFF"/>
</g>
<path class="smoke" opacity="0.07" d="M138.752 366.539C132.383 356.841 123.649 348.379 112.883 342.189C78.856 322.627 37.4197 333.091 20.3286 365.561C20.2541 365.702 20.1796 365.844 20.1051 365.985C24.2458 374.894 27.2009 384.204 28.9512 393.605L207.641 496.334L279.303 405.271C271.851 397.001 248.108 372.896 237.95 367.056C204.975 348.091 167.054 349.147 138.752 366.539Z" fill="#276ED8"/>
<path class="smoke" d="M90.5723 419.063C88.3783 403.054 83.7464 388.818 76.4907 377.364C55.5951 344.344 18.4541 343.022 -18.7876 368.66C-19.3589 352.602 -22.9121 338.349 -29.7324 327.558C-33.234 322.017 -37.3928 317.747 -42.0413 314.67C-42.6377 332.515 -47.7069 352.862 -57.316 372.867L40.1449 429.02L91.3626 458.529C92.4865 444.631 92.2443 431.328 90.5723 419.063Z" fill="white" fill-opacity="0.3"/>
<path class="smoke" opacity="0.07" d="M67.4946 395.153C67.2801 381.653 62.3467 370.385 52.9853 365.048L52.8672 364.981C53.3278 364.174 53.7804 363.363 54.2204 362.538C70.9301 331.18 68.2234 296.497 48.1744 285.067C41.8273 281.449 34.5064 280.601 26.9312 282.118C31.5693 252.223 23.6984 225.643 4.26723 214.565C-1.48183 211.288 -7.79551 209.618 -14.4068 209.413L-86.5281 344.755L21.441 406.307L59.7011 428.119C65.0971 416.934 67.6565 405.401 67.4946 395.153Z" fill="#276ED8"/>
<path class="smoke" opacity="0.6" d="M136.012 381.063C125.701 367.347 111.267 358.437 95.8222 357.97L95.6275 357.964C95.5915 356.892 95.5426 355.819 95.4673 354.738C92.6038 313.687 63.4699 279.6 30.3923 278.599C19.9204 278.282 10.3176 281.324 2.16315 286.923C-14.4052 253.819 -43.8365 230.791 -75.8949 229.82C-85.38 229.533 -94.3599 231.196 -102.615 234.516L-90.2559 411.698L87.8767 417.089L151 419C149.287 404.659 143.839 391.476 136.012 381.063Z" fill="white"/>
<path class="smoke" opacity="0.07" d="M65.6432 407.127C61.5055 390.807 50.6413 379.211 34.5538 376.732L34.3538 376.699C34.8397 375.521 35.3198 374.34 35.777 373.146C52.9799 327.87 38.9969 286.843 4.53247 281.524C-6.37964 279.842 -18.0281 281.945 -29.4037 287.035C-29.9564 269.266 -34.4956 253.516 -42.5377 241.212L-96.089 341.595L66.5622 435.018C68.1061 424.885 67.7425 415.391 65.6432 407.127Z" fill="#276ED8"/>
<path class="smoke" opacity="0.6" d="M289.615 365.06C281.996 358.022 272.521 352.388 261.68 348.968C227.421 338.166 192.522 353.517 183.741 383.242C183.505 384.023 183.306 384.813 183.116 385.601L182.917 385.539C166.925 380.497 150.765 382.128 138.179 388.795C128.625 393.859 121.131 401.822 117.323 411.963L182.713 432.578L317.431 475.04L383.808 351.487C381.983 350.799 380.131 350.16 378.247 349.567C345.041 339.096 311.408 346.06 289.615 365.06Z" fill="white"/>
</g>
<defs>
<filter id="filter0_d_52_1" x="136.411" y="41.7231" width="124.587" height="198.695" filterUnits="userSpaceOnUse" color-interpolation-filters="sRGB">
<feFlood flood-opacity="0" result="BackgroundImageFix"/>
<feColorMatrix in="SourceAlpha" type="matrix" values="0 0 0 0 0 0 0 0 0 0 0 0 0 0 0 0 0 0 127 0" result="hardAlpha"/>
<feOffset dy="4"/>
<feGaussianBlur stdDeviation="6"/>
<feColorMatrix type="matrix" values="0 0 0 0 0.160784 0 0 0 0 0.0941176 0 0 0 0 0.435294 0 0 0 0.2 0"/>
<feBlend mode="normal" in2="BackgroundImageFix" result="effect1_dropShadow_52_1"/>
<feBlend mode="normal" in="SourceGraphic" in2="effect1_dropShadow_52_1" result="shape"/>
</filter>
<clipPath id="clip0_52_1">
<rect width="75.1407" height="75.1407" fill="white" transform="translate(66 63.5703) rotate(-30)"/>
</clipPath>
</defs>
</svg>
