<svg width="1600" height="606" viewBox="0 0 1600 606" fill="none" xmlns="http://www.w3.org/2000/svg">
<path d="M281.359 98.7025C114.295 111.243 -102 207.069 -102 207.069L-102 763.729C-102 763.729 49.5401 850.189 181.895 855.527C401.001 864.364 563.486 746.371 783.038 750.828C1026.85 755.778 1140.32 838.369 1384.11 843.714C1530.75 846.93 1758 823.073 1758 823.073L1758 0C1758 0 1687.25 88.6213 1634.95 98.7025C1515.99 121.629 1439.21 80.888 1313.11 83.2215C1085.96 87.425 977.149 165.688 749.909 163.207C561.222 161.146 468.319 84.6682 281.359 98.7025Z" fill="#194484"/>
</svg>
