<svg width="380" height="511" viewBox="0 0 380 511" fill="none" xmlns="http://www.w3.org/2000/svg">
<path d="M-3.16216 69.3484C-56.6918 55.1111 -136.329 0 -136.329 0L-144.95 453.501C-144.95 453.501 -5.72609 380.843 86.4287 380.998C155.792 381.114 200.304 392.107 269.329 406.706C349.203 423.599 467.748 460.198 467.748 460.198L473.931 134.947C473.931 134.947 342.723 67.8787 253.923 51.4185C152.725 32.6601 97.5291 96.1292 -3.16216 69.3484Z" fill="#276ED8" fill-opacity="0.1"/>
<path d="M41.2369 104.889C-4.06302 97.1073 -72 57 -72 57V439C-72 439 44.0639 367.009 121.661 359.927C180.067 354.596 217.722 360.356 276.075 367.229C343.599 375.182 444 396.679 444 396.679V122.708C444 122.708 332.449 76.5831 257.416 69.6924C171.907 61.8396 126.448 119.527 41.2369 104.889Z" fill="#276ED8"/>
</svg>
